<svg width="130" height="292" viewBox="0 0 130 292" fill="none" xmlns="http://www.w3.org/2000/svg">
<path d="M74.7983 115.269C89.8567 152.465 88.8847 150.357 90.224 174.479C90.9706 187.926 87.2698 238.794 114.941 237.16C129.996 236.27 132.221 241.976 125.655 249.629C121.925 252.774 118.883 256.242 114.622 259.112C103.838 266.378 79.6173 289.477 64.3046 291.758C48.992 294.039 57.2496 273.493 37.9438 243.979C23.6795 226.685 29.6321 220.866 41.2382 227.038C67.7866 241.157 76.4236 217.803 78.7113 205.992C88.4131 155.905 40.2412 85.449 12.0003 33.7488C-12.6372 -4.28676 19.2281 48.1334 2.18354 15.6966C1.22295 10.6172 -3.74404 2.9946 11.6099 1.08523C25.1231 -0.595223 28.4033 13.3664 37.9905 32.3774C51.2121 64.31 50.8343 64.3024 57.3753 79.3206L74.7983 115.269Z" fill="#333333"/>
</svg>
